<svg width="32" height="32" viewBox="0 0 32 32" fill="none" xmlns="http://www.w3.org/2000/svg">
<g id="Brand Logo / Compact Mark &#194;&#183; 32" clip-path="url(#clip0_0_12)">
<path id="Vector" d="M23.3333 0H8.66667C3.8802 0 0 3.8802 0 8.66667V23.3333C0 28.1198 3.8802 32 8.66667 32H23.3333C28.1198 32 32 28.1198 32 23.3333V8.66667C32 3.8802 28.1198 0 23.3333 0Z" fill="var(--fill-0, #071936)"/>
<path id="Vector_2" d="M12 10.6667H4.66667V13.3333H9.33333L6.66667 16.6667C5.33333 18 5.33333 20 6 21.3333C6.66667 23.3333 8.66667 24.6667 10.6667 24.6667C13.3333 24.6667 15.3333 22.6667 15.3333 20C15.3333 18 14.6667 16.6667 12.6667 16L15.3333 13.3333L12 10.6667Z" fill="url(#paint0_linear_0_12)"/>
<path id="Vector_3" d="M16.6667 12V9.33333C16.6667 6.66667 18.6667 5.33333 21.3333 5.33333C24 5.33333 26 6.66667 26 9.33333V12.6667" stroke="url(#paint1_linear_0_12)" stroke-width="2.06667" stroke-linecap="round"/>
<path id="Vector_4" d="M16.6667 12.6667C16.6667 12.6667 18.6667 11.3333 21.3333 11.3333C24 11.3333 26 12.6667 26 12.6667V19.3333C26 23.3333 24 25.3333 21.3333 26.6667C18.6667 25.3333 16.6667 23.3333 16.6667 19.3333V12.6667Z" fill="var(--fill-0, #071936)" stroke="url(#paint2_linear_0_12)" stroke-width="2.2"/>
<path id="Vector_5" d="M19.3333 15.3333H23.3333V20C23.3333 22 22 23.3333 21.3333 24C20 23.3333 19.3333 22 19.3333 20V15.3333Z" stroke="var(--stroke-0, #F6F9F8)" stroke-width="0.933333"/>
<path id="Vector_6" d="M20.3333 17.3333H22.3333M20.3333 18.6667H22.3333" stroke="var(--stroke-0, #F6F9F8)" stroke-width="0.666667" stroke-linecap="round"/>
</g>
<defs>
<linearGradient id="paint0_linear_0_12" x1="4.66667" y1="4.66667" x2="28" y2="27.3333" gradientUnits="userSpaceOnUse">
<stop stop-color="#FAF2D7"/>
<stop offset="1" stop-color="#50D7C3"/>
</linearGradient>
<linearGradient id="paint1_linear_0_12" x1="4.66667" y1="4.66667" x2="28" y2="27.3333" gradientUnits="userSpaceOnUse">
<stop stop-color="#FAF2D7"/>
<stop offset="1" stop-color="#50D7C3"/>
</linearGradient>
<linearGradient id="paint2_linear_0_12" x1="4.66667" y1="4.66667" x2="28" y2="27.3333" gradientUnits="userSpaceOnUse">
<stop stop-color="#FAF2D7"/>
<stop offset="1" stop-color="#50D7C3"/>
</linearGradient>
<clipPath id="clip0_0_12">
<rect width="32" height="32" fill="white"/>
</clipPath>
</defs>
</svg>
